# xmcd
#
# Track frame offsets:
#	150
#	15878
#	34775
#	58375
#	86467
#	104826
#	122417
#	137109
#	157252
#	179212
#	198004
#	224732
#	250956
#
# Disc length: 3667 seconds
#
# Revision: 1
# Processed by: cddbd v1.5.1PL2 Copyright (c) Steve Scherf et al.
# Submitted via: audiograbber 1.83.01
#
DISCID=c20e510d
DTITLE=White Iron Band - White Iron Band
DYEAR=2002
DGENRE=Country
TTITLE0=Highs Lows
TTITLE1=Seasame Street Blues
TTITLE2=Time Will Tell
TTITLE3=San Diego
TTITLE4=Borderline
TTITLE5=New Drinkin' Tune
TTITLE6=Liquor Jar
TTITLE7=Tennessee Hustler
TTITLE8=Roll Mississippi
TTITLE9=Ride My Blues
TTITLE10=8 Ball At Five
TTITLE11=Minnesota Pride
TTITLE12=Holiday Inn(Bonus Track)
EXTD=
EXTT0=
EXTT1=
EXTT2=
EXTT3=
EXTT4=
EXTT5=
EXTT6=
EXTT7=
EXTT8=
EXTT9=
EXTT10=
EXTT11=
EXTT12=
PLAYORDER=
